<?xml version="1.0" encoding="UTF-8"?>
<svg xmlns="http://www.w3.org/2000/svg" viewBox="0 0 4000 4000">
  <defs>
    <style>
      .cls-1 {
        fill: #fff;
      }
    </style>
  </defs>
  <g id="Calque_6" data-name="Calque 6">
    <circle cx="2000" cy="2000" r="2000"/>
  </g>
  <g id="Calque_7" data-name="Calque 7">
    <g>
      <path class="cls-1" d="M1731.8,1704.06v28.21h-93.04v-15.97l93.04-12.24m5-5.7l-103.04,13.56v25.35h103.04v-38.91h0Z"/>
      <path class="cls-1" d="M1954.38,1674.76v57.52h-93.04v-45.27l93.04-12.24m5-5.7l-103.04,13.56v54.66h103.04v-68.22h0Z"/>
      <path class="cls-1" d="M1569.32,1725.45v6.83h-51.85l51.85-6.83m5-5.7l-100.4,13.22v4.31h100.4v-17.53h0Z"/>
      <path class="cls-1" d="M3325.24,1494.28c9.39,23.94,14.15,51.67,14.15,82.5v15.47h-253.1l.87,5.74c3.68,24.41,12.88,43.41,27.35,56.46,14.52,13.13,33.2,19.78,55.53,19.78,34.16,0,58.29-12.89,71.77-38.31h88.06c-4.46,14.49-10.87,27.73-19.1,39.44-9.41,13.37-21.48,25.14-35.88,34.99-28.97,19.8-64.24,29.84-104.84,29.84-25.69,0-49.2-4-69.88-11.89-20.59-7.85-39-19.81-54.72-35.52-15.71-15.71-27.66-34.22-35.52-55.02-7.89-20.91-11.9-44.76-11.9-70.89,0-10.25,.6-20.24,1.79-29.75l89.07-11.72c-.39,1.86-.74,3.75-1.05,5.64l-.97,5.82h162.39l-.97-5.82c-1.56-9.35-4.07-17.95-7.48-25.64l84.45-11.12m3.18-5.46l-95.2,12.53c4.82,8.79,8.19,18.96,10.12,30.52h-150.59c.72-4.33,1.61-8.45,2.65-12.37l-100.04,13.17c-1.55,10.87-2.34,22.27-2.34,34.21,0,53.73,16.29,96.87,48.88,129.45,32.58,32.59,75.29,48.88,128.13,48.88,41.83,0,77.72-10.24,107.67-30.71,29.93-20.47,49.53-48.32,58.78-83.56h-97.75c-12.33,25.55-35.23,38.31-68.69,38.31-21.13,0-38.53-6.16-52.17-18.49-13.65-12.32-22.24-30.15-25.76-53.5h252.29v-20.47c0-33.17-5.32-62.49-15.97-87.96h0Z"/>
      <path class="cls-1" d="M2955.41,1542.96c.61,7.64,.91,15.66,.91,23.91,0,26.68-3.26,50.91-9.69,72.02-6.38,20.95-16.07,39.43-28.77,54.89-12.88,15.4-28.21,27.11-45.58,34.79-17.44,7.71-37.48,11.63-59.57,11.63-20.92,0-39.62-3.99-55.58-11.87-15.9-7.85-29.61-19.81-40.74-35.56l-9.08-12.85v437.84l-93.04,12.25v-542.13l91.89-12.1c1.12,29.9,8.16,52.82,20.93,68.12,13.13,15.75,32.38,23.73,57.22,23.73s43.79-9.23,57.49-27.42c13.38-17.76,20.16-43.33,20.16-75.99,0-3.05-.06-6.04-.17-8.94l93.61-12.33m4.52-5.64l-103.36,13.61c.27,4.25,.4,8.69,.4,13.29,0,31.71-6.4,56.04-19.15,72.98-12.78,16.96-30.61,25.43-53.5,25.43-46.78,0-71.17-29.24-73.18-87.73-.06-1.58-.09-3.18-.11-4.8l-101.74,13.4v552.22l103.04-13.57v-426.49c23.34,33.03,56.81,49.54,100.4,49.54,45.79,0,82.12-16.07,108.98-48.21,26.42-32.14,39.63-75.52,39.63-130.11,0-10.25-.46-20.1-1.4-29.55h0Z"/>
      <path class="cls-1" d="M2505.12,1602.25l-2.42,6.93-48.72,139.66c-15,42.82-34.16,72.67-56.93,88.69-23.7,16.5-60.07,24.87-108.1,24.87-7.51,0-19.37-.37-35.29-1.1v-69.48h28.03c36.97,0,56.52-18.17,56.52-52.55,0-14.78-5.28-36.93-16.14-67.72l-9.6-27.18-5.66-16.01,81.54-10.74c1.11,4.36,2.27,8.96,3.52,13.94,2.34,9.35,4.75,19.09,7.14,28.96l4.9,20.2,4.83-20.22c2.56-10.72,5.14-21.34,7.68-31.57,1.4-5.67,2.68-10.78,3.86-15.51l84.83-11.17m7.39-6.02l-96.25,12.68c-1.58,6.27-3.14,12.55-4.69,18.82-2.61,10.53-5.17,21.06-7.69,31.61-2.33-9.62-4.71-19.29-7.15-29-1.52-6.07-3.06-12.15-4.62-18.26l-92.06,12.12,7.71,21.83,9.6,27.18c10.56,29.94,15.85,51.95,15.85,66.05,0,31.7-17.18,47.55-51.52,47.55h-33.03v79.25c18.49,.88,31.91,1.32,40.29,1.32,49.31,0,86.29-8.59,110.95-25.76,23.78-16.73,43.37-47.13,58.79-91.14l48.72-139.66,5.09-14.59h0Z"/>
      <path class="cls-1" d="M2138.63,1650.5c1.69,3.25,3.93,5.9,6.69,7.92,6.66,4.87,17.56,7.24,33.34,7.24h21.41v67.23c-11.46,1.35-25.75,2.04-42.55,2.04-41.35,0-71.4-7.3-89.33-21.69-7.46-5.98-13.42-13.76-17.72-23.11-3.57-7.79-6.08-16.86-7.48-27.03l95.64-12.59m3.09-5.45l-104.27,13.72c1.28,12.75,4.11,23.89,8.48,33.43,4.65,10.11,11.02,18.42,19.13,24.93,18.93,15.19,49.75,22.79,92.46,22.79,19.38,0,35.23-.89,47.55-2.64v-76.62h-26.41c-14.53,0-24.66-2.09-30.38-6.27-2.94-2.15-5.14-5.26-6.56-9.33h0Z"/>
    </g>
    <g>
      <path class="cls-1" d="M1959.38,1514.03v155.02l-103.04,13.56v-148.11c0-38.73-18.27-58.12-54.81-58.12-18.49,0-33.91,6.17-46.24,18.49-12.33,12.33-18.49,29.72-18.49,52.18v151.3l-103.04,13.56v-315.46h100.4v48.22c26.43-37.43,62.09-56.14,107-56.14,36.09,0,64.83,10.89,86.19,32.69,21.35,21.8,32.03,52.74,32.03,92.8Z"/>
      <path class="cls-1" d="M1574.32,1396.46v323.29l-100.4,13.22v-43.9c-26.42,37.43-62.09,56.14-107,56.14-36.11,0-64.83-10.89-86.19-32.7-21.37-21.8-32.04-52.72-32.04-92.8v-223.24h103.03v202.77c0,38.75,18.27,58.13,54.83,58.13,18.48,0,33.89-6.17,46.23-18.49,12.33-12.33,18.5-29.73,18.5-52.19v-190.22h103.03Z"/>
      <path class="cls-1" d="M3328.42,1488.82l-95.2,12.53c-3.35-6.13-7.42-11.57-12.18-16.36-.92-.91-1.85-1.79-2.8-2.66-13.22-11.89-30.17-17.83-50.86-17.83-33.32,0-55.84,13.95-67.53,41.86-1.72,4.08-3.2,8.46-4.45,13.14l-100.04,13.17c.39-2.74,.84-5.45,1.33-8.11,6.42-34.82,21.26-63.86,44.55-87.13,31.7-32.58,74.18-48.88,127.47-48.88s95.55,16.95,128.13,50.86c8.08,8.76,15.12,18.26,21.15,28.5,3.92,6.66,7.39,13.63,10.44,20.92Z"/>
      <path class="cls-1" d="M2959.93,1537.33l-103.36,13.61c-.04-.56-.07-1.11-.11-1.66-3.72-52.12-27.77-78.17-72.14-78.17-48.88,0-73.32,31.93-73.32,95.77,0,1.09,0,2.16,.02,3.22l-101.74,13.4v-187.03h100.4v45.58c23.34-35.67,57.69-53.5,103.04-53.5s82.12,16.07,108.98,48.21c20.37,24.79,32.89,56.26,37.55,94.4,.25,2.04,.47,4.1,.68,6.18Z"/>
      <path class="cls-1" d="M2392.11,1612.08l-92.06,12.12-80.44-227.74h110.95l15.19,48.22c17.04,57.24,32.49,113.05,46.36,167.4Z"/>
      <path class="cls-1" d="M2582.21,1396.46l-69.7,199.77-96.25,12.68c13.77-54.77,28.57-109.3,44.42-163.57l15.19-48.88h106.34Z"/>
      <path class="cls-1" d="M2139.69,1471.77v159.17c0,5.56,.67,10.28,2.03,14.12l-104.27,13.72c-.53-5.26-.79-10.8-.79-16.61v-170.4h-50.86v-75.3h50.86v-101.05h103.04v101.05h65.38v75.3h-65.38Z"/>
    </g>
    <g>
      <path class="cls-1" d="M804.21,2100.4c21.77,0,41.06,4.21,57.34,12.5,16.2,8.26,29.95,20.85,40.86,37.42l9.18,13.94v-55.94h90.4v233.94l-119.2,15.7c5.49-4.77,10.19-10.57,14.07-17.36,9.34-16.32,14.08-38.82,14.08-66.88,0-32.9-6.51-58.09-19.36-74.87-13.16-17.19-32.99-25.91-58.96-25.91-24.44,0-43.78,9.23-57.49,27.42-13.38,17.74-20.16,43.31-20.16,75.99,0,40.33,10.24,68.62,30.44,84.08,4.45,3.41,9.41,6.21,14.83,8.39l-112.74,14.84c-1.97-3.19-3.86-6.51-5.64-9.92-14.1-27.17-21.25-60.82-21.25-100.02,0-26.67,3.31-50.9,9.85-72,6.49-20.95,16.34-39.42,29.31-54.94,12.65-15.39,27.81-27.09,45.06-34.77,17.32-7.71,37.3-11.62,59.39-11.62m0-5c-45.79,0-81.89,16.07-108.31,48.21-26.87,32.14-40.29,75.52-40.29,130.12,0,40.19,7.27,74.3,21.81,102.33,2.33,4.48,4.85,8.82,7.57,12.99l148.55-19.56c-.31,0-.61,0-.92,0-18.12,0-32.84-4.33-44.17-13.02-18.98-14.53-28.48-41.23-28.48-80.11,0-31.7,6.37-56.02,19.15-72.98,12.77-16.95,30.6-25.43,53.5-25.43,48.88,0,73.32,31.93,73.32,95.77,0,27.3-4.47,48.76-13.42,64.39-8.26,14.46-20.35,23.92-36.27,28.38l150.74-19.85v-243.33h-100.4v44.25c-22.89-34.78-57.02-52.17-102.37-52.17h0Z"/>
      <path class="cls-1" d="M1387.04,2108.33v183.25l-93.49,12.31c.3-3.34,.45-6.8,.45-10.34v-185.22h93.04m5-5h-103.04v190.22c0,5.71-.4,11.09-1.2,16.15l104.24-13.72v-192.64h0Z"/>
      <path class="cls-1" d="M1164.46,2108.33v197.76c0,5.18,.32,10.09,.96,14.67l-93.89,12.36c-.07-2.15-.1-4.34-.1-6.56v-218.23h93.04m5-5h-103.04v223.23c0,4.18,.11,8.25,.35,12.23l104.44-13.75c-1.17-5.69-1.76-12.01-1.76-18.95v-202.76h0Z"/>
      <path class="cls-1" d="M1547.53,1982.17v77.19h-88.41v-77.19h88.41m5-5h-98.41v87.19h98.41v-87.19h0Z"/>
      <path class="cls-1" d="M1549.51,2108.33v161.86l-93.03,12.24v-174.11h93.03m5-5h-103.03v184.81l103.03-13.56v-171.25h0Z"/>
      <path class="cls-1" d="M1775.77,2100.4c22.71,0,43.61,3,62.13,8.93,18.41,5.89,34.99,14.83,49.29,26.59,9.01,7.41,16.96,15.78,23.61,24.9,12.11,16.6,20.36,36.28,24.54,58.58l-53.62,7.06h-37.72c-6.26-30.17-24.59-47.43-54.52-51.33-4.26-.56-8.87-.84-13.7-.84-16.1,0-29.89,3.58-40.96,10.64-18.7,11.91-29.96,33.86-33.48,65.28l-95.35,12.55c.74-17.77,3.32-34.41,7.69-49.55,7.42-25.68,20.27-47.92,38.19-66.08,15.27-15.48,33.38-27.25,53.85-35,20.58-7.78,44.15-11.73,70.06-11.73m0-5c-53.29,0-95.77,16.07-127.47,48.21-18.62,18.87-31.75,41.61-39.44,68.2-4.98,17.27-7.67,36.15-8.06,56.66l105.1-13.84c2.86-32.08,13.39-53.92,31.59-65.5,10.31-6.57,23.06-9.86,38.28-9.86,4.6,0,8.94,.26,13.05,.8,29,3.78,46,20.91,51.02,51.37h42.2l59.11-7.78c-3.98-25.28-12.75-47.22-26.31-65.81-6.91-9.47-15.07-18.08-24.47-25.81-29.72-24.44-67.93-36.66-114.59-36.66h0Z"/>
      <path class="cls-1" d="M2509.55,2100.4c18.99,0,36.18,3.32,51.09,9.85,12.09,5.3,22.99,12.86,32.51,22.54l-197.05,25.94c2.8-4.15,5.81-8.14,8.99-11.94,12.65-15.39,27.81-27.09,45.06-34.77,17.32-7.71,37.31-11.62,59.4-11.62m0-5c-45.8,0-81.9,16.07-108.32,48.21-5.58,6.67-10.57,13.82-14.99,21.46l217.03-28.57c-22.91-27.41-54.15-41.11-93.71-41.11h0Z"/>
      <path class="cls-1" d="M2150.92,2100.4c23.35,0,44.87,3.05,63.95,9.07l.45,.14c24,7.66,44.92,20.29,62.17,37.54,7.51,7.51,14.19,15.76,19.91,24.58l-102.63,13.51c-11.91-8.15-26.65-12.28-43.84-12.28-25.46,0-45.31,8.69-59,25.82l-106.63,14.04c7.67-25.34,20.79-47.41,39.06-65.67,1.75-1.76,3.61-3.53,5.54-5.27,15.17-13.73,33-24.18,52.99-31.05,20.11-6.91,43-10.42,68.04-10.42m0-5c-51.42,0-92.9,14.26-124.39,42.77-1.95,1.76-3.86,3.57-5.73,5.45-20.7,20.7-34.83,45.74-42.37,75.15l116.18-15.29c.27-.36,.54-.72,.82-1.07,12.77-16.28,31.26-24.44,55.49-24.44,17,0,31.18,4.16,42.55,12.5l112.21-14.77c-6.76-11.71-14.98-22.39-24.65-32.07-18.02-18.02-39.57-30.99-64.65-38.91h0c-19.66-6.2-41.48-9.3-65.46-9.3h0Z"/>
    </g>
    <g>
      <path class="cls-1" d="M1006.98,2346.66v226.93h-103.04v-170.4c-23.33,32.58-56.58,48.88-99.73,48.88-45.79,0-81.89-16.08-108.31-48.22-3.93-4.69-7.57-9.63-10.91-14.8l148.55-19.56h.03c8.26-.07,15.81-1.06,22.66-2.99h0l150.74-19.85Z"/>
      <path class="cls-1" d="M1392.04,2295.96v148.17h-100.4v-48.22c-26.43,37.43-62.09,56.16-107,56.16-36.1,0-64.83-10.91-86.19-32.71-19.13-19.51-29.69-46.37-31.68-80.57l104.44-13.75c5.37,26.12,23.05,39.17,53.06,39.17,18.49,0,33.9-6.16,46.24-18.48,9.18-9.18,14.96-21.2,17.29-36.04l104.24-13.72Z"/>
      <polygon class="cls-1" points="1554.51 2274.58 1554.51 2444.13 1451.48 2444.13 1451.48 2288.14 1554.51 2274.58"/>
      <path class="cls-1" d="M1944.19,2310.06c-3.08,43.15-20.04,77.72-50.86,103.69-30.82,25.54-70.01,38.32-117.56,38.32-53.29,0-95.77-16.29-127.47-48.88-31.7-32.58-47.55-75.74-47.55-129.45,0-1.76,.02-3.51,.06-5.25l105.1-13.84c-.54,6-.81,12.37-.81,19.09,0,62.53,23.56,93.79,70.67,93.79,39.63,0,61.64-19.16,66.04-57.46h102.37Z"/>
      <path class="cls-1" d="M2609.28,2135.72v8.56c-1.94-2.71-3.94-5.29-6.02-7.77l-217.03,28.57c-16.86,29.17-25.3,65.38-25.3,108.66,0,54.59,13.42,97.97,40.29,130.11,26.42,32.14,62.52,48.22,108.32,48.22s79.47-17.4,102.37-52.19v44.26h100.4v-321.98l-103.04,13.57Zm-71.33,233.78c-48.44,0-72.66-31.04-72.66-93.13,0-31.7,6.38-56.03,19.16-72.98,12.76-16.95,30.59-25.43,53.5-25.43,48.88,0,73.31,31.93,73.31,95.77s-24.43,95.77-73.31,95.77Z"/>
      <path class="cls-1" d="M2329.25,2273.73c0,54.15-16.08,97.31-48.22,129.45-32.58,32.58-75.96,48.88-130.11,48.88s-97.53-16.29-130.12-48.88c-32.59-32.58-48.88-75.74-48.88-129.45,0-19.76,2.17-38.08,6.51-54.97l116.18-15.29c-12.22,16.25-18.33,39.68-18.33,70.26s6.38,55.04,19.15,71.33c12.77,16.29,31.26,24.44,55.49,24.44s42.05-8.15,54.82-24.44c12.76-16.29,19.15-40.06,19.15-71.33s-6.39-55.04-19.15-71.34c-3.64-4.64-7.73-8.63-12.27-11.94l112.21-14.77c15.71,27.19,23.57,59.88,23.57,98.05Z"/>
      <path class="cls-1" d="M3109.26,2283.63c0-57.23-15.85-103.03-47.55-137.37-32.59-33.9-75.3-50.86-128.14-50.86s-95.77,16.29-127.48,48.88c-32.14,32.14-48.21,75.29-48.21,129.45s16.28,96.87,48.88,129.45c32.57,32.58,75.29,48.88,128.13,48.88,41.83,0,77.71-10.25,107.65-30.72,29.95-20.48,49.54-48.32,58.78-83.56h-97.75c-12.33,25.55-35.23,38.32-68.69,38.32-21.13,0-38.54-6.17-52.18-18.5-13.65-12.32-22.24-30.16-25.76-53.5h252.31v-20.48Zm-251.65-44.91c7.48-44.91,32.36-67.37,74.64-67.37,20.68,0,37.65,5.95,50.86,17.84,13.2,11.88,21.57,28.41,25.1,49.53h-150.6Z"/>
      <path class="cls-1" d="M1942.21,2231.46h-60.17l59.11-7.78c.4,2.56,.76,5.15,1.06,7.78Z"/>
    </g>
    <path class="cls-1" d="M3437,1202.93v1463.15H563V1202.93H3437m63-63H500v1589.15H3500V1139.93h0Z"/>
  </g>
</svg>