<svg width="64" xmlns="http://www.w3.org/2000/svg" height="64" fill="none"><g xmlns:xlink="http://www.w3.org/1999/xlink" style="fill: rgb(0, 0, 0);"><rect width="64" height="64" image-rendering="optimizeSpeed" style="fill: none;" ry="0" fill="none" rx="0" class="fills"/><defs><pattern patternUnits="userSpaceOnUse" x="1.559" y="1.999" width="63.926" height="65.101" id="a"><rect width="63.926" height="65.101" fill="none"/><image href="https://design.penpot.app/assets/by-file-media-id/9d19625d-7d4c-80ec-8004-0ea59e71cca9" preserveAspectRatio="none" width="60.882" height="62.001"/></pattern></defs><rect width="60.882" height="62.001" image-rendering="optimizeSpeed" x="1.559" ry="0" fill="url(#a)" rx="0" y="1.999" class="fills"/><defs><linearGradient x1="7.937" y1="15.081" x2="7.937" y2="1.852" id="b" gradientTransform="scale(3.7796)" gradientUnits="userSpaceOnUse"><stop offset="0" stop-color="#f1efeb"/><stop offset="1" stop-color="#fdfcfc"/></linearGradient></defs><rect width="56.002" height="56.002" image-rendering="optimizeSpeed" x="4" style="fill: #ffffff; fill-opacity: 1;" ry="13.002" fill="url(#b)" rx="13.002" y="3.969" class="fills"/><defs><linearGradient id="c" x1=".5" y1="0" x2=".5" y2="1"><stop offset="0" stop-color="#fdcd00"/><stop offset="1" stop-color="#ff0107" stop-opacity=".797"/></linearGradient><pattern patternUnits="userSpaceOnUse" x="18" y="13.5" width="28" height="37" id="d"><rect width="28" height="37" style="fill: url(&quot;#c&quot;);"/></pattern></defs><g class="fills"><path d="M28.108 19.219c1.216-.685 2.522-1.121 3.951-1.111 1.425.01 2.724.463 3.94 1.156.147-.737.262-1.451.436-2.151.231-.933.59-1.819 1.211-2.569.63-.762 1.409-1.197 2.433-.981.611.129 1.075.5 1.455.98.724.914 1.061 1.993 1.276 3.115a13.87 13.87 0 0 1 .057 5.017c-.067.386.026.578.282.814.739.68 1.484 1.372 1.922 2.297.637 1.345.986 2.761.921 4.264a7.637 7.637 0 0 1-1.22 3.879.37.37 0 0 0-.015.312c.883 1.717 1.224 3.544 1.093 5.461-.096 1.402-.485 2.715-1.249 3.908-.056.086-.087.255-.04.33.573.918.808 1.941.932 2.994.123 1.043.115 2.085-.113 3.118-.097.438-.086.441-.534.441-.487 0-.975-.011-1.461.006-.248.008-.291-.119-.274-.312a1.21 1.21 0 0 1 .067-.29c.391-1.11.288-2.232.095-3.359-.124-.721-.431-1.365-.817-1.971-.422-.664-.348-1.251.137-1.857.782-.976 1.081-2.137 1.142-3.362.084-1.675-.292-3.241-1.209-4.655a1.226 1.226 0 0 1 .138-1.544c.67-.702.984-1.599 1.148-2.548.401-2.322-.794-4.892-2.837-6.062-.914-.523-1.892-.748-2.951-.597-.533.075-.786.05-1.066-.579-.695-1.56-1.985-2.451-3.578-2.92-2.061-.607-4.601.311-5.83 2.091-.224.324-.408.68-.581 1.036-.129.267-.315.399-.604.393-.495-.012-.998-.091-1.483-.028-1.913.251-3.249 1.346-4.076 3.037-.974 1.992-.942 3.973.298 5.871.069.106.162.201.261.281.472.389.588.95.254 1.464a7.701 7.701 0 0 0-1.201 3.276c-.223 1.798.017 3.494 1.167 4.97.409.525.466 1.069.101 1.627-.709 1.082-1.032 2.28-1.022 3.559.005.56.119 1.12.19 1.678.014.108.062.21.089.316.102.409.05.479-.358.479-.487 0-.975-.015-1.461.006-.244.011-.348-.091-.376-.306-.076-.57-.19-1.14-.211-1.712-.049-1.335.127-2.64.649-3.883.035-.082.059-.178.116-.241.353-.394.221-.725-.028-1.142-.816-1.37-1.082-2.891-1.057-4.47a10.143 10.143 0 0 1 1.09-4.453.385.385 0 0 0-.021-.316c-1.747-2.857-1.67-5.722-.037-8.589.449-.789 1.144-1.371 1.788-1.991.192-.184.244-.332.199-.621-.349-2.251-.292-4.483.467-6.658.234-.671.563-1.296 1.064-1.814 1.023-1.057 2.386-1.073 3.431-.033.688.686 1.089 1.544 1.345 2.461.226.809.376 1.64.565 2.488Zm-4.853 2.814c.803-.094 1.587-.182 2.371-.281.071-.009.147-.077.196-.138.242-.298.186-.65.179-.998-.023-1.18-.158-2.344-.559-3.457a6.279 6.279 0 0 0-.634-1.24c-.229-.357-.384-.348-.617 0-.181.27-.35.56-.46.864-.623 1.721-.693 3.493-.476 5.25Zm17.572.031a11.828 11.828 0 0 0-.194-4.412c-.149-.631-.351-1.245-.753-1.769-.226-.294-.366-.315-.566-.003-.259.407-.502.837-.666 1.288-.464 1.266-.557 2.596-.572 3.931-.004.412.24.649.633.659.079.002.158.009.236.021.624.093 1.247.188 1.882.285Z" fill="url(#d)" class="cls-1"/></g><defs><linearGradient id="e" x1=".5" y1="0" x2=".5" y2="1"><stop offset="0" stop-color="#fdcd00"/><stop offset="1" stop-color="#ff0107" stop-opacity=".797"/></linearGradient><pattern patternUnits="userSpaceOnUse" x="26.655" y="29.253" width="11.453" height="8.924" id="f"><rect width="11.453" height="8.924" style="fill: url(&quot;#e&quot;);"/></pattern></defs><g class="fills"><path d="M32.362 38.167c-1 .038-1.99-.011-2.927-.408-1.386-.588-2.405-1.527-2.701-3.061-.278-1.439.19-2.679 1.211-3.697 1.309-1.309 2.929-1.813 4.751-1.741 1.593.063 2.998.597 4.122 1.745 2.146 2.19 1.537 5.376-1.252 6.65a5.68 5.68 0 0 1-2.369.512h-.835Zm.01-1.412c.239 0 .477.004.716-.001 1.044-.021 2.007-.282 2.791-1.012.861-.802 1.058-1.938.481-2.96a3.677 3.677 0 0 0-.801-.987c-1.191-1.007-2.589-1.302-4.105-1.042-1.178.202-2.183.727-2.885 1.732-.356.51-.563 1.08-.479 1.712.155 1.167.909 1.835 1.936 2.254.753.308 1.548.33 2.346.304Z" fill="url(#f)" class="cls-1"/></g><defs><linearGradient id="g" x1=".5" y1="0" x2=".5" y2="1"><stop offset="0" stop-color="#fdcd00"/><stop offset="1" stop-color="#ff0107" stop-opacity=".797"/></linearGradient><pattern patternUnits="userSpaceOnUse" x="23.507" y="29.253" width="2.808" height="2.942" id="h"><rect width="2.808" height="2.942" style="fill: url(&quot;#g&quot;);"/></pattern></defs><g class="fills"><path d="M26.316 30.595c-.009.816-.711 1.604-1.426 1.601-.826-.005-1.42-.576-1.381-1.379.04-.799.602-1.576 1.476-1.564.762.011 1.339.587 1.331 1.342Z" fill="url(#h)" class="cls-1"/></g><defs><linearGradient id="i" x1=".5" y1="0" x2=".5" y2="1"><stop offset="0" stop-color="#fdcd00"/><stop offset="1" stop-color="#ff0107" stop-opacity=".797"/></linearGradient><pattern patternUnits="userSpaceOnUse" x="38.456" y="29.253" width="2.81" height="2.943" id="j"><rect width="2.81" height="2.943" style="fill: url(&quot;#i&quot;);"/></pattern></defs><g class="fills"><path d="M38.456 30.58c-.003-.739.57-1.307 1.318-1.326.892-.023 1.472.802 1.492 1.609.018.763-.572 1.325-1.37 1.334-.732.008-1.436-.783-1.44-1.617Z" fill="url(#j)" class="cls-1"/></g><defs><linearGradient id="k" x1=".5" y1="0" x2=".5" y2="1"><stop offset="0" stop-color="#fdcd00"/><stop offset="1" stop-color="#ff0107" stop-opacity=".797"/></linearGradient><pattern patternUnits="userSpaceOnUse" x="31.375" y="32.404" width="2.563" height="2.713" id="l"><rect width="2.563" height="2.713" style="fill: url(&quot;#k&quot;);"/></pattern></defs><g class="fills"><path d="M32.665 35.116c-.525 0-.724-.24-.622-.751.022-.107.073-.218.059-.32a.586.586 0 0 0-.143-.313c-.106-.114-.262-.181-.374-.289-.235-.226-.271-.512-.116-.757.151-.238.468-.372.728-.213.338.204.609.174.937-.007.252-.14.558-.016.712.205.148.213.117.522-.079.74-.052.059-.108.129-.177.157-.402.162-.406.449-.319.818.117.495-.1.731-.606.73Z" fill="url(#l)" class="cls-1"/></g></g></svg>
