<?xml version="1.0" encoding="UTF-8"?>
<svg id="Calque_1" data-name="Calque 1" xmlns="http://www.w3.org/2000/svg" xmlns:xlink="http://www.w3.org/1999/xlink" viewBox="0 0 3000 2000">
  <defs>
    <style>
      .cls-1 {
        fill: url(#Dégradé_sans_nom_8);
      }

      .cls-1, .cls-2 {
        stroke-width: 0px;
      }

      .cls-2 {
        fill: #ededed;
      }
    </style>
    <linearGradient id="Dégradé_sans_nom_8" data-name="Dégradé sans nom 8" x1="-58.01" y1="100.48" x2="3058.01" y2="1899.52" gradientUnits="userSpaceOnUse">
      <stop offset="0" stop-color="#1b273d"/>
      <stop offset="1" stop-color="#081b29"/>
    </linearGradient>
  </defs>
  <rect class="cls-1" width="3000" height="2000"/>
  <g>
    <path class="cls-2" d="m1530.77,1288.02c0-127.99,104.13-232.11,232.11-232.11,94.46,0,175.74,56.78,211.95,137.95v-437.48c0-113.62-92.42-206.04-206.04-206.04h-16.07v-20.13c0-16.68-13.52-30.2-30.2-30.2s-30.2,13.52-30.2,30.2v20.13h-384.63v-20.13c0-16.68-13.52-30.2-30.2-30.2s-30.2,13.52-30.2,30.2v20.13h-16.07c-113.62,0-206.04,92.42-206.04,206.04v537.58c0,113.62,92.42,206.04,206.04,206.04h437.52c-81.14-36.21-137.95-117.52-137.95-211.98Zm-445.2-460.84v-70.81c0-80.3,65.34-145.64,145.64-145.64h16.07v20.07c0,16.68,13.52,30.2,30.2,30.2s30.2-13.52,30.2-30.2v-20.07h384.63v20.07c0,16.68,13.52,30.2,30.2,30.2s30.2-13.52,30.2-30.2v-20.07h16.07c80.3,0,145.64,65.34,145.64,145.64v70.81s-828.86,0-828.86,0Zm225.4,465.87h-47.28c-16.68,0-30.2-13.52-30.2-30.2s13.52-30.2,30.2-30.2h47.28c16.68,0,30.2,13.52,30.2,30.2s-13.52,30.2-30.2,30.2Zm0-198.62h-47.28c-16.68,0-30.2-13.52-30.2-30.2s13.52-30.2,30.2-30.2h47.28c16.68,0,30.2,13.52,30.2,30.2s-13.52,30.2-30.2,30.2Zm165.37,0c-16.68,0-30.2-13.52-30.2-30.2s13.52-30.2,30.2-30.2h47.28c16.68,0,30.2,13.52,30.2,30.2s-13.52,30.2-30.2,30.2h-47.28Z"/>
    <path class="cls-2" d="m1762.89,1106.28c-100.4,0-181.78,81.38-181.78,181.78s81.38,181.78,181.78,181.78,181.78-81.38,181.78-181.78c-.03-100.4-81.41-181.78-181.78-181.78Zm61.88,243.62c-5.91,5.91-13.62,8.86-21.34,8.86s-15.44-2.95-21.34-8.86l-40.54-40.54c-5.67-5.64-8.86-13.32-8.86-21.34v-85.44c0-16.68,13.52-30.2,30.2-30.2s30.2,13.52,30.2,30.2v72.95l31.68,31.68c11.78,11.78,11.78,30.91,0,42.68Z"/>
  </g>
</svg>